<svg height="4494" width="720" xmlns="http://www.w3.org/2000/svg">
<rect height="4494" fill="#555" width="720"></rect>
<text fill="#7f7" font-family="Courier New" font-size="12" xml:space="preserve">
<tspan x="10" y="26">71 megabytes installed</tspan>
<tspan x="10" y="42"></tspan>
<tspan x="10" y="58">node_modules</tspan>
<tspan x="10" y="74">├─┬ babel@5.8.38 </tspan>
<tspan x="10" y="90">│ ├─┬ babel-core@5.8.38 </tspan>
<tspan x="10" y="106">│ │ ├── babel-plugin-constant-folding@1.0.1 </tspan>
<tspan x="10" y="122">│ │ ├── babel-plugin-dead-code-elimination@1.0.2 </tspan>
<tspan x="10" y="138">│ │ ├── babel-plugin-eval@1.0.1 </tspan>
<tspan x="10" y="154">│ │ ├── babel-plugin-inline-environment-variables@1.0.1 </tspan>
<tspan x="10" y="170">│ │ ├── babel-plugin-jscript@1.0.4 </tspan>
<tspan x="10" y="186">│ │ ├── babel-plugin-member-expression-literals@1.0.1 </tspan>
<tspan x="10" y="202">│ │ ├── babel-plugin-property-literals@1.0.1 </tspan>
<tspan x="10" y="218">│ │ ├── babel-plugin-proto-to-assign@1.0.4 </tspan>
<tspan x="10" y="234">│ │ ├── babel-plugin-react-constant-elements@1.0.3 </tspan>
<tspan x="10" y="250">│ │ ├── babel-plugin-react-display-name@1.0.3 </tspan>
<tspan x="10" y="266">│ │ ├── babel-plugin-remove-console@1.0.1 </tspan>
<tspan x="10" y="282">│ │ ├── babel-plugin-remove-debugger@1.0.1 </tspan>
<tspan x="10" y="298">│ │ ├── babel-plugin-runtime@1.0.7 </tspan>
<tspan x="10" y="314">│ │ ├─┬ babel-plugin-undeclared-variables-check@1.0.2 </tspan>
<tspan x="10" y="330">│ │ │ └── leven@1.0.2 </tspan>
<tspan x="10" y="346">│ │ ├── babel-plugin-undefined-to-void@1.1.6 </tspan>
<tspan x="10" y="362">│ │ ├── babylon@5.8.38 </tspan>
<tspan x="10" y="378">│ │ ├── bluebird@2.11.0 </tspan>
<tspan x="10" y="394">│ │ ├─┬ chalk@1.1.3 </tspan>
<tspan x="10" y="410">│ │ │ ├── ansi-styles@2.2.1 </tspan>
<tspan x="10" y="426">│ │ │ ├── escape-string-regexp@1.0.5 </tspan>
<tspan x="10" y="442">│ │ │ ├─┬ has-ansi@2.0.0 </tspan>
<tspan x="10" y="458">│ │ │ │ └── ansi-regex@2.1.1 </tspan>
<tspan x="10" y="474">│ │ │ ├── strip-ansi@3.0.1 </tspan>
<tspan x="10" y="490">│ │ │ └── supports-color@2.0.0 </tspan>
<tspan x="10" y="506">│ │ ├── core-js@1.2.7 </tspan>
<tspan x="10" y="522">│ │ ├─┬ detect-indent@3.0.1 </tspan>
<tspan x="10" y="538">│ │ │ ├── get-stdin@4.0.1 </tspan>
<tspan x="10" y="554">│ │ │ └── minimist@1.2.0 </tspan>
<tspan x="10" y="570">│ │ ├── esutils@2.0.2 </tspan>
<tspan x="10" y="586">│ │ ├── globals@6.4.1 </tspan>
<tspan x="10" y="602">│ │ ├─┬ home-or-tmp@1.0.0 </tspan>
<tspan x="10" y="618">│ │ │ ├── os-tmpdir@1.0.2 </tspan>
<tspan x="10" y="634">│ │ │ └── user-home@1.1.1 </tspan>
<tspan x="10" y="650">│ │ ├─┬ is-integer@1.0.6 </tspan>
<tspan x="10" y="666">│ │ │ └─┬ is-finite@1.0.2 </tspan>
<tspan x="10" y="682">│ │ │   └── number-is-nan@1.0.1 </tspan>
<tspan x="10" y="698">│ │ ├── js-tokens@1.0.1 </tspan>
<tspan x="10" y="714">│ │ ├── json5@0.4.0 </tspan>
<tspan x="10" y="730">│ │ ├─┬ minimatch@2.0.10 </tspan>
<tspan x="10" y="746">│ │ │ └─┬ brace-expansion@1.1.7 </tspan>
<tspan x="10" y="762">│ │ │   ├── balanced-match@0.4.2 </tspan>
<tspan x="10" y="778">│ │ │   └── concat-map@0.0.1 </tspan>
<tspan x="10" y="794">│ │ ├── private@0.1.7 </tspan>
<tspan x="10" y="810">│ │ ├─┬ regenerator@0.8.40 </tspan>
<tspan x="10" y="826">│ │ │ ├─┬ commoner@0.10.8 </tspan>
<tspan x="10" y="842">│ │ │ │ ├─┬ detective@4.5.0 </tspan>
<tspan x="10" y="858">│ │ │ │ │ ├── acorn@4.0.11 </tspan>
<tspan x="10" y="874">│ │ │ │ │ └── defined@1.0.0 </tspan>
<tspan x="10" y="890">│ │ │ │ ├── iconv-lite@0.4.15 </tspan>
<tspan x="10" y="906">│ │ │ │ ├── q@1.5.0 </tspan>
<tspan x="10" y="922">│ │ │ │ └─┬ recast@0.11.23 </tspan>
<tspan x="10" y="938">│ │ │ │   ├── ast-types@0.9.6 </tspan>
<tspan x="10" y="954">│ │ │ │   └── esprima@3.1.3 </tspan>
<tspan x="10" y="970">│ │ │ ├─┬ defs@1.1.1 </tspan>
<tspan x="10" y="986">│ │ │ │ ├─┬ alter@0.2.0 </tspan>
<tspan x="10" y="1002">│ │ │ │ │ └── stable@0.1.6 </tspan>
<tspan x="10" y="1018">│ │ │ │ ├── ast-traverse@0.1.1 </tspan>
<tspan x="10" y="1034">│ │ │ │ ├── breakable@1.0.0 </tspan>
<tspan x="10" y="1050">│ │ │ │ ├── simple-fmt@0.1.0 </tspan>
<tspan x="10" y="1066">│ │ │ │ ├── simple-is@0.2.0 </tspan>
<tspan x="10" y="1082">│ │ │ │ ├── stringmap@0.2.2 </tspan>
<tspan x="10" y="1098">│ │ │ │ ├── stringset@0.2.1 </tspan>
<tspan x="10" y="1114">│ │ │ │ ├── tryor@0.1.2 </tspan>
<tspan x="10" y="1130">│ │ │ │ └─┬ yargs@3.27.0 </tspan>
<tspan x="10" y="1146">│ │ │ │   ├── camelcase@1.2.1 </tspan>
<tspan x="10" y="1162">│ │ │ │   ├─┬ cliui@2.1.0 </tspan>
<tspan x="10" y="1178">│ │ │ │   │ ├─┬ center-align@0.1.3 </tspan>
<tspan x="10" y="1194">│ │ │ │   │ │ ├─┬ align-text@0.1.4 </tspan>
<tspan x="10" y="1210">│ │ │ │   │ │ │ └── longest@1.0.1 </tspan>
<tspan x="10" y="1226">│ │ │ │   │ │ └── lazy-cache@1.0.4 </tspan>
<tspan x="10" y="1242">│ │ │ │   │ ├── right-align@0.1.3 </tspan>
<tspan x="10" y="1258">│ │ │ │   │ └── wordwrap@0.0.2 </tspan>
<tspan x="10" y="1274">│ │ │ │   ├── decamelize@1.2.0 </tspan>
<tspan x="10" y="1290">│ │ │ │   ├─┬ os-locale@1.4.0 </tspan>
<tspan x="10" y="1306">│ │ │ │   │ └─┬ lcid@1.0.0 </tspan>
<tspan x="10" y="1322">│ │ │ │   │   └── invert-kv@1.0.0 </tspan>
<tspan x="10" y="1338">│ │ │ │   ├── window-size@0.1.4 </tspan>
<tspan x="10" y="1354">│ │ │ │   └── y18n@3.2.1 </tspan>
<tspan x="10" y="1370">│ │ │ ├── esprima-fb@15001.1001.0-dev-harmony-fb </tspan>
<tspan x="10" y="1386">│ │ │ ├─┬ recast@0.10.33 </tspan>
<tspan x="10" y="1402">│ │ │ │ └── ast-types@0.8.12 </tspan>
<tspan x="10" y="1418">│ │ │ └── through@2.3.8 </tspan>
<tspan x="10" y="1434">│ │ ├─┬ regexpu@1.3.0 </tspan>
<tspan x="10" y="1450">│ │ │ ├── esprima@2.7.3 </tspan>
<tspan x="10" y="1466">│ │ │ ├── regenerate@1.3.2 </tspan>
<tspan x="10" y="1482">│ │ │ ├── regjsgen@0.2.0 </tspan>
<tspan x="10" y="1498">│ │ │ └─┬ regjsparser@0.1.5 </tspan>
<tspan x="10" y="1514">│ │ │   └── jsesc@0.5.0 </tspan>
<tspan x="10" y="1530">│ │ ├── repeating@1.1.3 </tspan>
<tspan x="10" y="1546">│ │ ├─┬ resolve@1.3.3 </tspan>
<tspan x="10" y="1562">│ │ │ └── path-parse@1.0.5 </tspan>
<tspan x="10" y="1578">│ │ ├── shebang-regex@1.0.0 </tspan>
<tspan x="10" y="1594">│ │ ├─┬ source-map-support@0.2.10 </tspan>
<tspan x="10" y="1610">│ │ │ └─┬ source-map@0.1.32 </tspan>
<tspan x="10" y="1626">│ │ │   └── amdefine@1.0.1 </tspan>
<tspan x="10" y="1642">│ │ ├── to-fast-properties@1.0.2 </tspan>
<tspan x="10" y="1658">│ │ ├── trim-right@1.0.1 </tspan>
<tspan x="10" y="1674">│ │ └── try-resolve@1.0.1 </tspan>
<tspan x="10" y="1690">│ ├─┬ chokidar@1.6.1 </tspan>
<tspan x="10" y="1706">│ │ ├─┬ anymatch@1.3.0 </tspan>
<tspan x="10" y="1722">│ │ │ ├── arrify@1.0.1 </tspan>
<tspan x="10" y="1738">│ │ │ └─┬ micromatch@2.3.11 </tspan>
<tspan x="10" y="1754">│ │ │   ├─┬ arr-diff@2.0.0 </tspan>
<tspan x="10" y="1770">│ │ │   │ └── arr-flatten@1.0.3 </tspan>
<tspan x="10" y="1786">│ │ │   ├── array-unique@0.2.1 </tspan>
<tspan x="10" y="1802">│ │ │   ├─┬ braces@1.8.5 </tspan>
<tspan x="10" y="1818">│ │ │   │ ├─┬ expand-range@1.8.2 </tspan>
<tspan x="10" y="1834">│ │ │   │ │ └─┬ fill-range@2.2.3 </tspan>
<tspan x="10" y="1850">│ │ │   │ │   ├── is-number@2.1.0 </tspan>
<tspan x="10" y="1866">│ │ │   │ │   ├── isobject@2.1.0 </tspan>
<tspan x="10" y="1882">│ │ │   │ │   ├── randomatic@1.1.6 </tspan>
<tspan x="10" y="1898">│ │ │   │ │   └── repeat-string@1.6.1 </tspan>
<tspan x="10" y="1914">│ │ │   │ ├── preserve@0.2.0 </tspan>
<tspan x="10" y="1930">│ │ │   │ └── repeat-element@1.1.2 </tspan>
<tspan x="10" y="1946">│ │ │   ├─┬ expand-brackets@0.1.5 </tspan>
<tspan x="10" y="1962">│ │ │   │ └── is-posix-bracket@0.1.1 </tspan>
<tspan x="10" y="1978">│ │ │   ├── extglob@0.3.2 </tspan>
<tspan x="10" y="1994">│ │ │   ├── filename-regex@2.0.0 </tspan>
<tspan x="10" y="2010">│ │ │   ├─┬ kind-of@3.1.0 </tspan>
<tspan x="10" y="2026">│ │ │   │ └── is-buffer@1.1.5 </tspan>
<tspan x="10" y="2042">│ │ │   ├─┬ normalize-path@2.1.1 </tspan>
<tspan x="10" y="2058">│ │ │   │ └── remove-trailing-separator@1.0.1 </tspan>
<tspan x="10" y="2074">│ │ │   ├─┬ object.omit@2.0.1 </tspan>
<tspan x="10" y="2090">│ │ │   │ ├─┬ for-own@0.1.5 </tspan>
<tspan x="10" y="2106">│ │ │   │ │ └── for-in@1.0.2 </tspan>
<tspan x="10" y="2122">│ │ │   │ └── is-extendable@0.1.1 </tspan>
<tspan x="10" y="2138">│ │ │   ├─┬ parse-glob@3.0.4 </tspan>
<tspan x="10" y="2154">│ │ │   │ ├── glob-base@0.3.0 </tspan>
<tspan x="10" y="2170">│ │ │   │ └── is-dotfile@1.0.2 </tspan>
<tspan x="10" y="2186">│ │ │   └─┬ regex-cache@0.4.3 </tspan>
<tspan x="10" y="2202">│ │ │     ├── is-equal-shallow@0.1.3 </tspan>
<tspan x="10" y="2218">│ │ │     └── is-primitive@2.0.0 </tspan>
<tspan x="10" y="2234">│ │ ├── async-each@1.0.1 </tspan>
<tspan x="10" y="2250">│ │ ├── glob-parent@2.0.0 </tspan>
<tspan x="10" y="2266">│ │ ├── inherits@2.0.3 </tspan>
<tspan x="10" y="2282">│ │ ├─┬ is-binary-path@1.0.1 </tspan>
<tspan x="10" y="2298">│ │ │ └── binary-extensions@1.8.0 </tspan>
<tspan x="10" y="2314">│ │ ├─┬ is-glob@2.0.1 </tspan>
<tspan x="10" y="2330">│ │ │ └── is-extglob@1.0.0 </tspan>
<tspan x="10" y="2346">│ │ └─┬ readdirp@2.1.0 </tspan>
<tspan x="10" y="2362">│ │   ├── minimatch@3.0.3 </tspan>
<tspan x="10" y="2378">│ │   ├─┬ readable-stream@2.2.9 </tspan>
<tspan x="10" y="2394">│ │   │ ├── buffer-shims@1.0.0 </tspan>
<tspan x="10" y="2410">│ │   │ ├── isarray@1.0.0 </tspan>
<tspan x="10" y="2426">│ │   │ ├── process-nextick-args@1.0.7 </tspan>
<tspan x="10" y="2442">│ │   │ ├── string_decoder@1.0.0 </tspan>
<tspan x="10" y="2458">│ │   │ └── util-deprecate@1.0.2 </tspan>
<tspan x="10" y="2474">│ │   └── set-immediate-shim@1.0.1 </tspan>
<tspan x="10" y="2490">│ ├─┬ commander@2.9.0 </tspan>
<tspan x="10" y="2506">│ │ └── graceful-readlink@1.0.1 </tspan>
<tspan x="10" y="2522">│ ├── convert-source-map@1.5.0 </tspan>
<tspan x="10" y="2538">│ ├── fs-readdir-recursive@0.1.2 </tspan>
<tspan x="10" y="2554">│ ├─┬ glob@5.0.15 </tspan>
<tspan x="10" y="2570">│ │ ├─┬ inflight@1.0.6 </tspan>
<tspan x="10" y="2586">│ │ │ └── wrappy@1.0.2 </tspan>
<tspan x="10" y="2602">│ │ └── once@1.4.0 </tspan>
<tspan x="10" y="2618">│ ├── lodash@3.10.1 </tspan>
<tspan x="10" y="2634">│ ├─┬ output-file-sync@1.1.2 </tspan>
<tspan x="10" y="2650">│ │ ├── graceful-fs@4.1.11 </tspan>
<tspan x="10" y="2666">│ │ ├─┬ mkdirp@0.5.1 </tspan>
<tspan x="10" y="2682">│ │ │ └── minimist@0.0.8 </tspan>
<tspan x="10" y="2698">│ │ └── object-assign@4.1.1 </tspan>
<tspan x="10" y="2714">│ ├── path-exists@1.0.0 </tspan>
<tspan x="10" y="2730">│ ├── path-is-absolute@1.0.1 </tspan>
<tspan x="10" y="2746">│ ├── slash@1.0.0 </tspan>
<tspan x="10" y="2762">│ └── source-map@0.5.6 </tspan>
<tspan x="10" y="2778">├── flags@0.1.3 </tspan>
<tspan x="10" y="2794">├── ip@1.1.0 </tspan>
<tspan x="10" y="2810">├─┬ nicercast@0.1.0 </tspan>
<tspan x="10" y="2826">│ ├─┬ express@3.5.3 </tspan>
<tspan x="10" y="2842">│ │ ├── buffer-crc32@0.2.1 </tspan>
<tspan x="10" y="2858">│ │ ├─┬ commander@1.3.2 </tspan>
<tspan x="10" y="2874">│ │ │ └── keypress@0.1.0 </tspan>
<tspan x="10" y="2890">│ │ ├─┬ connect@2.14.5 </tspan>
<tspan x="10" y="2906">│ │ │ ├── basic-auth-connect@1.0.0 </tspan>
<tspan x="10" y="2922">│ │ │ ├── bytes@0.3.0 </tspan>
<tspan x="10" y="2938">│ │ │ ├─┬ compression@1.0.0 </tspan>
<tspan x="10" y="2954">│ │ │ │ ├── bytes@0.2.1 </tspan>
<tspan x="10" y="2970">│ │ │ │ ├── compressible@1.0.0 </tspan>
<tspan x="10" y="2986">│ │ │ │ └── negotiator@0.3.0 </tspan>
<tspan x="10" y="3002">│ │ │ ├── connect-timeout@1.0.0 </tspan>
<tspan x="10" y="3018">│ │ │ ├─┬ cookie-parser@1.0.1 </tspan>
<tspan x="10" y="3034">│ │ │ │ └── cookie@0.1.0 </tspan>
<tspan x="10" y="3050">│ │ │ ├─┬ csurf@1.1.0 </tspan>
<tspan x="10" y="3066">│ │ │ │ ├── scmp@0.0.3 </tspan>
<tspan x="10" y="3082">│ │ │ │ └── uid2@0.0.3 </tspan>
<tspan x="10" y="3098">│ │ │ ├── debug@0.8.1 </tspan>
<tspan x="10" y="3114">│ │ │ ├── errorhandler@1.0.0 </tspan>
<tspan x="10" y="3130">│ │ │ ├─┬ express-session@1.0.2 </tspan>
<tspan x="10" y="3146">│ │ │ │ ├── cookie@0.1.0 </tspan>
<tspan x="10" y="3162">│ │ │ │ ├── debug@0.7.4 </tspan>
<tspan x="10" y="3178">│ │ │ │ └── utils-merge@1.0.0 </tspan>
<tspan x="10" y="3194">│ │ │ ├── method-override@1.0.0 </tspan>
<tspan x="10" y="3210">│ │ │ ├─┬ morgan@1.0.0 </tspan>
<tspan x="10" y="3226">│ │ │ │ └── bytes@0.2.1 </tspan>
<tspan x="10" y="3242">│ │ │ ├─┬ multiparty@2.2.0 </tspan>
<tspan x="10" y="3258">│ │ │ │ ├─┬ readable-stream@1.1.14 </tspan>
<tspan x="10" y="3274">│ │ │ │ │ ├── isarray@0.0.1 </tspan>
<tspan x="10" y="3290">│ │ │ │ │ └── string_decoder@0.10.31 </tspan>
<tspan x="10" y="3306">│ │ │ │ └─┬ stream-counter@0.2.0 </tspan>
<tspan x="10" y="3322">│ │ │ │   └─┬ readable-stream@1.1.14 </tspan>
<tspan x="10" y="3338">│ │ │ │     ├── isarray@0.0.1 </tspan>
<tspan x="10" y="3354">│ │ │ │     └── string_decoder@0.10.31 </tspan>
<tspan x="10" y="3370">│ │ │ ├── pause@0.0.1 </tspan>
<tspan x="10" y="3386">│ │ │ ├── raw-body@1.1.4 </tspan>
<tspan x="10" y="3402">│ │ │ ├── response-time@1.0.0 </tspan>
<tspan x="10" y="3418">│ │ │ ├─┬ serve-index@1.0.1 </tspan>
<tspan x="10" y="3434">│ │ │ │ ├── batch@0.5.0 </tspan>
<tspan x="10" y="3450">│ │ │ │ └── negotiator@0.4.2 </tspan>
<tspan x="10" y="3466">│ │ │ ├─┬ serve-static@1.1.0 </tspan>
<tspan x="10" y="3482">│ │ │ │ └── parseurl@1.0.1 </tspan>
<tspan x="10" y="3498">│ │ │ ├── setimmediate@1.0.1 </tspan>
<tspan x="10" y="3514">│ │ │ ├── static-favicon@1.0.2 </tspan>
<tspan x="10" y="3530">│ │ │ └── vhost@1.0.0 </tspan>
<tspan x="10" y="3546">│ │ ├── cookie@0.1.2 </tspan>
<tspan x="10" y="3562">│ │ ├── cookie-signature@1.0.3 </tspan>
<tspan x="10" y="3578">│ │ ├── debug@0.8.1 </tspan>
<tspan x="10" y="3594">│ │ ├── fresh@0.2.2 </tspan>
<tspan x="10" y="3610">│ │ ├── merge-descriptors@0.0.2 </tspan>
<tspan x="10" y="3626">│ │ ├── methods@0.1.0 </tspan>
<tspan x="10" y="3642">│ │ ├── mkdirp@0.4.0 </tspan>
<tspan x="10" y="3658">│ │ ├── range-parser@1.0.0 </tspan>
<tspan x="10" y="3674">│ │ └─┬ send@0.3.0 </tspan>
<tspan x="10" y="3690">│ │   └── debug@0.8.0 </tspan>
<tspan x="10" y="3706">│ ├─┬ icecast-stack@0.3.0 </tspan>
<tspan x="10" y="3722">│ │ ├─┬ http-stack@0.1.3 </tspan>
<tspan x="10" y="3738">│ │ │ └─┬ header-stack@0.1.3 </tspan>
<tspan x="10" y="3754">│ │ │   ├── bufferjs@3.0.1 </tspan>
<tspan x="10" y="3770">│ │ │   └── bufferlist@0.1.0 </tspan>
<tspan x="10" y="3786">│ │ └── stream-stack@1.1.4 </tspan>
<tspan x="10" y="3802">│ ├── ip@0.3.3 </tspan>
<tspan x="10" y="3818">│ └─┬ lame@1.2.4 </tspan>
<tspan x="10" y="3834">│   ├── bindings@1.2.1 </tspan>
<tspan x="10" y="3850">│   ├─┬ debug@2.6.4 </tspan>
<tspan x="10" y="3866">│   │ └── ms@0.7.3 </tspan>
<tspan x="10" y="3882">│   ├── nan@2.6.2 </tspan>
<tspan x="10" y="3898">│   └─┬ readable-stream@1.1.14 </tspan>
<tspan x="10" y="3914">│     ├── core-util-is@1.0.2 </tspan>
<tspan x="10" y="3930">│     ├── isarray@0.0.1 </tspan>
<tspan x="10" y="3946">│     └── string_decoder@0.10.31 </tspan>
<tspan x="10" y="3962">└─┬ sonos@0.7.0  (git://github.com/stephen/node-sonos.git#20d6d6afbf04d065330df6288c3db20234b515\</tspan>
<tspan x="10" y="3978">ce)</tspan>
<tspan x="10" y="3994">  ├── async@0.9.2 </tspan>
<tspan x="10" y="4010">  ├── debug@0.7.4 </tspan>
<tspan x="10" y="4026">  ├── ip@0.3.3 </tspan>
<tspan x="10" y="4042">  ├─┬ request@2.27.0 </tspan>
<tspan x="10" y="4058">  │ ├── aws-sign@0.3.0 </tspan>
<tspan x="10" y="4074">  │ ├── cookie-jar@0.3.0 </tspan>
<tspan x="10" y="4090">  │ ├── forever-agent@0.5.2 </tspan>
<tspan x="10" y="4106">  │ ├─┬ form-data@0.1.4 </tspan>
<tspan x="10" y="4122">  │ │ ├── async@0.9.2 </tspan>
<tspan x="10" y="4138">  │ │ └─┬ combined-stream@0.0.7 </tspan>
<tspan x="10" y="4154">  │ │   └── delayed-stream@0.0.5 </tspan>
<tspan x="10" y="4170">  │ ├─┬ hawk@1.0.0 </tspan>
<tspan x="10" y="4186">  │ │ ├── boom@0.4.2 </tspan>
<tspan x="10" y="4202">  │ │ ├── cryptiles@0.2.2 </tspan>
<tspan x="10" y="4218">  │ │ ├── hoek@0.9.1 </tspan>
<tspan x="10" y="4234">  │ │ └── sntp@0.2.4 </tspan>
<tspan x="10" y="4250">  │ ├─┬ http-signature@0.10.1 </tspan>
<tspan x="10" y="4266">  │ │ ├── asn1@0.1.11 </tspan>
<tspan x="10" y="4282">  │ │ ├── assert-plus@0.1.5 </tspan>
<tspan x="10" y="4298">  │ │ └── ctype@0.5.3 </tspan>
<tspan x="10" y="4314">  │ ├── json-stringify-safe@5.0.1 </tspan>
<tspan x="10" y="4330">  │ ├── mime@1.2.11 </tspan>
<tspan x="10" y="4346">  │ ├── node-uuid@1.4.8 </tspan>
<tspan x="10" y="4362">  │ ├── oauth-sign@0.3.0 </tspan>
<tspan x="10" y="4378">  │ ├── qs@0.6.6 </tspan>
<tspan x="10" y="4394">  │ └── tunnel-agent@0.3.0 </tspan>
<tspan x="10" y="4410">  ├── underscore@1.5.2 </tspan>
<tspan x="10" y="4426">  ├─┬ upnp-client@0.0.1 </tspan>
<tspan x="10" y="4442">  │ └── step@1.0.0 </tspan>
<tspan x="10" y="4458">  └─┬ xml2js@0.2.8 </tspan>
<tspan x="10" y="4474">    └── sax@0.5.8</tspan>
</text>
</svg>
